<svg xmlns="http://www.w3.org/2000/svg" width="227.59" height="228.522" viewBox="0 0 227.59 228.522">
  <g id="Group_1434" data-name="Group 1434" transform="translate(-51.811 -51)">
    <g id="Group_1249" data-name="Group 1249" transform="translate(51.811 51)">
      <path id="Path_1797" data-name="Path 1797" d="M249.474,205.079S294.781,134.492,273.9,89.352s-70.709-45.4-87.936-26.533c-10.529,11.531-7.46,30.791-32.387,38.242-15.248,4.558-26.349-2.75-49.081-10.676s-49.123,9.3-52.366,36.814c-3.64,30.878,24.466,47.019,39.9,58.135s7.615,29.551,14.01,46.815S215.6,267.74,249.474,205.079Z" transform="translate(-51.811 -51)" fill="#d5faf6"/>
      <path id="Path_1798" data-name="Path 1798" d="M378.417,131.976S381.864,92.08,356,72.247c-22.243-17.057-44.478-8.787-51.476-1.292s.659,16.54,19.99,15.248S373.162,98.263,378.417,131.976Z" transform="translate(-158.338 -55.776)" fill="#fff"/>
    </g>
    <g id="Group_1433" data-name="Group 1433" transform="translate(55.376 95.294)">
      <g id="Group_1250" data-name="Group 1250" transform="translate(0 159.299)">
        <ellipse id="Ellipse_79" data-name="Ellipse 79" cx="24.638" cy="5.326" rx="24.638" ry="5.326" transform="translate(19.701 14.277)" fill="#d2edff"/>
        <ellipse id="Ellipse_80" data-name="Ellipse 80" cx="24.638" cy="5.326" rx="24.638" ry="5.326" transform="translate(156.113 8.951)" fill="#d2edff"/>
        <ellipse id="Ellipse_81" data-name="Ellipse 81" cx="63.935" cy="5.326" rx="63.935" ry="5.326" transform="translate(77.616 3.625)" fill="#d2edff"/>
        <ellipse id="Ellipse_82" data-name="Ellipse 82" cx="63.935" cy="5.326" rx="63.935" ry="5.326" fill="#d2edff"/>
      </g>
      <g id="Group_1432" data-name="Group 1432" transform="translate(0.84)">
        <g id="Group_1401" data-name="Group 1401" transform="translate(17.394 34.257)">
          <path id="Path_1918" data-name="Path 1918" d="M178.762,255.919s7.147-10.4,8.28-12.88,1.256-4.581-.52-5.867-5.05-2.295-7.943,1.782-8.241,16.6-8.459,20.516,17.5,15.779,19.071,16.545c1.735-.454,2.471-3.045,2.471-3.045S180.224,258.448,178.762,255.919Z" transform="translate(-170.118 -208.346)" fill="#f90"/>
          <path id="Path_1919" data-name="Path 1919" d="M194.109,419.438a10.714,10.714,0,0,1-.815,5.155c-1.175,3.1-1.24,4.078,0,4.764s2.12.881,5.579,0a43.455,43.455,0,0,0,7.308-2.806,38.434,38.434,0,0,1-4.666-3.393A19.122,19.122,0,0,1,198.709,418C198.742,417.48,194.109,419.438,194.109,419.438Z" transform="translate(-179.601 -285.792)" fill="#f79e77"/>
          <path id="Path_1920" data-name="Path 1920" d="M203.514,428.586c-1.392.928-2.721,1.942-4.5,1.688-1.431-.358-1.968-1.789-2.862-2.862a2.728,2.728,0,0,0-2.4-.4,14.722,14.722,0,0,1-.454,1.406c-1.175,3.1-1.24,4.078,0,4.764s2.12.881,5.579,0a43.457,43.457,0,0,0,7.308-2.806S204.8,429.5,203.514,428.586Z" transform="translate(-179.601 -289.617)" fill="#0c2c51"/>
          <path id="Path_1921" data-name="Path 1921" d="M268.449,226.427l4.331,1.865c1.435-1.78,2.514-3.121,3.219-3.267a2.984,2.984,0,0,0,3.11-1.156c.491-.626-.122-.984-.042-1.225.506-.745-.353-1.038-.215-1.214.532-.621.433-.958.112-1.128s-.861-.328-.762-.64a7.772,7.772,0,0,1,2.562-1.688c1.145-.543,2.405-1.413,1.708-1.871s-7.2,2.669-8.423,4-.9,2.754-2.432,4.222A18.262,18.262,0,0,1,268.449,226.427Z" transform="translate(-211.99 -199.837)" fill="#ffb797"/>
          <path id="Path_1922" data-name="Path 1922" d="M201.922,419.469a20.27,20.27,0,0,1-1.044,7.657c-1.348,3.437-.957,4.959,1.479,5.656s3.785-.957,6.961-.87,7.4-.261,8.483-3.176-3.989-1.612-7.063-2.524-1.706-6.307-1.706-6.307Z" transform="translate(-182.89 -286.454)" fill="#ffae83"/>
          <path id="Path_1923" data-name="Path 1923" d="M210.824,430.825c-.276.924,2.231,1.9,1.491,2.392-2.683,1.967-5.9-1.431-8.942-2.5a3.2,3.2,0,0,0-2.079-.172,12.526,12.526,0,0,1-.416,1.26c-1.348,3.437-.957,4.959,1.479,5.656s3.785-.957,6.961-.87,9.183-.514,10.27-3.429C220.664,430.272,213.905,431.684,210.824,430.825Z" transform="translate(-182.89 -291.129)" fill="#0f3163"/>
          <g id="Group_1399" data-name="Group 1399" transform="translate(17.238 140.636)">
            <g id="Group_1398" data-name="Group 1398">
              <g id="Group_1397" data-name="Group 1397">
                <path id="Path_1924" data-name="Path 1924" d="M219.227,432.741a1.98,1.98,0,0,1-.064.212c-1.087,2.915-7.095,3.516-10.27,3.429s-4.525,1.566-6.961.87a3.3,3.3,0,0,1-1.792-1.056c.1,1.158.826,1.836,2.229,2.237,2.436.7,3.785-.957,6.961-.87s9.183-.514,10.27-3.429A1.037,1.037,0,0,0,219.227,432.741Z" transform="translate(-200.14 -432.741)" fill="#0c2c51"/>
              </g>
            </g>
          </g>
          <path id="Path_1925" data-name="Path 1925" d="M201.712,310.287a7.717,7.717,0,0,1-3.505-3.253,9.715,9.715,0,0,1-.8-7.188,89.877,89.877,0,0,1,3.915-8.265l-7.7-1.425a87.853,87.853,0,0,0-5.22,10.669c-1.762,4.7-.326,9.658.522,13.377s3,14.356,2.088,18.336-2.61,10.049-2.154,14.682,2.741,15.661,2.676,18.14a5.084,5.084,0,0,0,2.222.445,6.762,6.762,0,0,0,3.651-1.293s.523-18.989,2.48-27.342S203.8,313.289,201.712,310.287Z" transform="translate(-177.547 -231.389)" fill="#144182"/>
          <path id="Path_1926" data-name="Path 1926" d="M206.489,314.49a7.717,7.717,0,0,1-3.505-3.253c-3.259-1.54-.987-7.52-1.251-11.211-1.29,3.563-6.226,9.987.519,17.989,2.4,2.229.057,19.721-2,27.61-1.845,6.689-1.039,17.431-.713,24.266a6.955,6.955,0,0,0,2.644-1.175s.523-18.989,2.48-27.342S208.577,317.492,206.489,314.49Z" transform="translate(-182.323 -235.592)" fill="#0f3163"/>
          <path id="Path_1927" data-name="Path 1927" d="M219.588,291.686a61.194,61.194,0,0,1,1.566,17.836c-.7,9.222-6.873,24.71-7.569,28.1s-1.653,13.151-2.523,17.538-1.305,8.477-.827,9.607c-2.045,2.176-7.482,1.914-8.7,0,.435-8.961.218-16.661,1.914-22.708s.652-7.613,1.349-11.4,1.392-15.487,1.74-16.879-3.132-2.088-4.394-4.351-3.872-7.7,3.35-18.793A67.251,67.251,0,0,1,219.588,291.686Z" transform="translate(-183.111 -231.582)" fill="#144182"/>
          <path id="Path_1928" data-name="Path 1928" d="M222.886,291.686a67.251,67.251,0,0,0-14.095-1.044c-.145.222-.279.438-.416.656a66.464,66.464,0,0,1,11.214,1.073,61.206,61.206,0,0,1,1.566,17.836c-.7,9.223-5.63,24.452-6.326,27.846s-.971,12.709-1.841,17.1a38.838,38.838,0,0,0-.6,10.441,4.04,4.04,0,0,0,1.148-.82c-.478-1.131-.043-5.22.827-9.607s1.827-14.145,2.523-17.538,6.873-18.881,7.569-28.1A61.194,61.194,0,0,0,222.886,291.686Z" transform="translate(-186.409 -231.582)" fill="#164e91"/>
          <path id="Path_1929" data-name="Path 1929" d="M217.492,201.868s.653,7.744-.218,10.136a16.98,16.98,0,0,1-2.219,4.611c-.478.478-2.781-.392-3.24,0s-.415,4.872-.415,4.872l-6.4-.261s.74-8.091,1.305-10.31S216.84,201.694,217.492,201.868Z" transform="translate(-184.975 -193.793)" fill="#ffae83"/>
          <path id="Path_1930" data-name="Path 1930" d="M198.586,234.376s4.959-2.48,9-.522,10.375,10.18,11.354,11.745a9.09,9.09,0,0,1,0,8.288c-1.631,3.2-1.044,12.594-.2,14.225-6.852,2.023-17.488.718-22.382-1.435,2.741-3.981,4.176-5.482,2.219-9.853S194.279,240.052,198.586,234.376Z" transform="translate(-181.207 -207.094)" fill="#fa0"/>
          <path id="Path_1931" data-name="Path 1931" d="M215.865,254.941a9.089,9.089,0,0,0,0-8.287c-.979-1.566-7.309-9.789-11.354-11.746a8.385,8.385,0,0,0-4.274-.719,12.854,12.854,0,0,0-1.651.638c-4.307,5.677-1.958,18.075,0,22.447s.522,5.873-2.219,9.853c4.118,1.812,12.3,3.022,18.876,2.156.142-.038.286-.076.426-.118C214.821,267.535,214.234,258.138,215.865,254.941Z" transform="translate(-181.207 -207.545)" fill="#f90"/>
          <path id="Path_1932" data-name="Path 1932" d="M229.208,242.368s-10.326-7.259-12.79-8.418-4.568-1.305-5.873.457-2.35,5.025,1.7,7.961,16.509,8.418,20.425,8.679,15.966-17.326,16.748-18.893c-.435-1.74-3.018-2.5-3.018-2.5S231.752,240.933,229.208,242.368Z" transform="translate(-186.837 -205.625)" fill="#ffbc00"/>
          <g id="Group_1400" data-name="Group 1400" transform="translate(22.542 24.026)">
            <path id="Path_1933" data-name="Path 1933" d="M214.082,251.585c-.138-.1-.256-.194-.382-.291C213.822,251.391,213.949,251.488,214.082,251.585Z" transform="translate(-211.219 -238.867)" fill="#ff69a6"/>
            <path id="Path_1934" data-name="Path 1934" d="M210.293,236.112c1.305-1.762,3.409-1.616,5.873-.456s12.4,7.65,12.4,7.65c2.545-1.435,17.834-13.654,17.834-13.654s-14.644,11.282-17.189,12.717c0,0-10.326-7.259-12.79-8.418s-4.568-1.305-5.873.457a5.617,5.617,0,0,0-1.166,3.272A6.069,6.069,0,0,1,210.293,236.112Z" transform="translate(-209.379 -229.651)" fill="#ffd815"/>
          </g>
          <path id="Path_1935" data-name="Path 1935" d="M207.476,192.227c-2.958-2.958-8.44-4.089-8.44-4.089-4.651-1.58-8.265,2.784-9.31,6.7s-.531,8.471-2.131,13.615c-.81,2.508-12.395,20.452,2.793,33.448,3.861,1.908,6.817,2.747,10.99-.472-4.4-10.453-3.008-20.485-2.121-23.494.857-2.909,2.619-3.017,4.235-2.416l.222.087c-.15-.295-.345-.633-.575-1-.814-2.427-.048-7.46,1.618-9.237,1.958-2.088,2.871-5.481,3.2-7.961a7.58,7.58,0,0,1-1.305,5.808C209.455,201.058,210.434,195.185,207.476,192.227Z" transform="translate(-175.437 -187.806)" fill="#144182"/>
          <path id="Path_1936" data-name="Path 1936" d="M188.848,231.129c-1.715-12,3.087-24.351,7.546-35.67,1.334-3.469,5.16-5.069,9.054-4.8a22.721,22.721,0,0,0-6.412-2.521c-4.651-1.58-8.265,2.784-9.31,6.7s-.531,8.471-2.131,13.615c-.81,2.508-12.395,20.452,2.793,33.448,3.121,1.542,5.651,2.385,8.71.951a9.255,9.255,0,0,1-3.157-1.348C192.513,239.1,189.534,235.245,188.848,231.129Z" transform="translate(-175.437 -187.806)" fill="#0f3163"/>
        </g>
      </g>
    </g>
    <g id="Group_1396" data-name="Group 1396" transform="translate(144.292 95.293)">
      <path id="Path_1894" data-name="Path 1894" d="M296.709,297.066H226.783c-4.949,0-12.639-3.721-12.065-8.669l21.357-148.659a10.338,10.338,0,0,1,10-8.961l65.647-2.559c7.983,0,12.775,6.571,12.2,11.52L306.709,288.1A10.338,10.338,0,0,1,296.709,297.066Z" transform="translate(-213.648 -128.175)" fill="#144182"/>
      <g id="Group_1395" data-name="Group 1395">
        <g id="Group_1379" data-name="Group 1379">
          <g id="Group_1378" data-name="Group 1378">
            <path id="Path_1895" data-name="Path 1895" d="M290.785,294.433H220.86a7.82,7.82,0,0,1-7.921-8.961L230.151,137.1a10.338,10.338,0,0,1,10-8.961h69.925A7.82,7.82,0,0,1,318,137.1L300.786,285.472A10.338,10.338,0,0,1,290.785,294.433Z" transform="translate(-212.878 -128.143)" fill="#2099ff"/>
            <path id="Path_1896" data-name="Path 1896" d="M292.731,293.251H223.562a5.952,5.952,0,0,1-6.028-6.819l17.047-146.938a7.867,7.867,0,0,1,7.611-6.819h69.169a5.951,5.951,0,0,1,6.028,6.819L300.342,286.432A7.867,7.867,0,0,1,292.731,293.251Z" transform="translate(-214.841 -130.072)" fill="#acdaff"/>
            <path id="Path_1897" data-name="Path 1897" d="M286.546,401.4H272.128a2.656,2.656,0,0,1-2.683-3.035h0a3.513,3.513,0,0,1,3.388-3.035h14.417a2.656,2.656,0,0,1,2.683,3.035h0A3.512,3.512,0,0,1,286.546,401.4Z" transform="translate(-236.957 -241.917)" fill="#2099ff"/>
            <ellipse id="Ellipse_94" data-name="Ellipse 94" cx="2.415" cy="2.151" rx="2.415" ry="2.151" transform="matrix(0.727, -0.686, 0.686, 0.727, 25.766, 8.14)" fill="#2099ff"/>
            <ellipse id="Ellipse_95" data-name="Ellipse 95" cx="1.455" cy="1.296" rx="1.455" ry="1.296" transform="matrix(0.727, -0.686, 0.686, 0.727, 33.157, 8.103)" fill="#2099ff"/>
          </g>
          <path id="Path_1898" data-name="Path 1898" d="M300.293,288.555H224.268l15.758-135.826h76.025Z" transform="translate(-217.728 -138.612)" fill="#fff"/>
          <path id="Path_1899" data-name="Path 1899" d="M319.265,176.581H259.495a2.9,2.9,0,0,1-2.939-3.324l1.207-10.406a3.835,3.835,0,0,1,3.71-3.324h59.771a2.9,2.9,0,0,1,2.939,3.324l-1.207,10.406A3.835,3.835,0,0,1,319.265,176.581Z" transform="translate(-231.468 -141.507)" fill="#e6f2ff"/>
          <text id="Monday_11.00_AM" data-name="Monday 11.00 AM" transform="translate(55.196 26.443) rotate(6.574)" fill="#acdaff" font-size="5" font-family="Montserrat-SemiBold, Montserrat" font-weight="600"><tspan x="-21.87" y="0">Monday 11.00 AM</tspan></text>
        </g>
        <g id="Group_1387" data-name="Group 1387" transform="translate(16.479 40.165)">
          <g id="Group_1386" data-name="Group 1386">
            <g id="Group_1381" data-name="Group 1381" transform="translate(6.055)">
              <path id="Path_1900" data-name="Path 1900" d="M265.728,211.7h-13.6l1.578-13.6h13.6Z" transform="translate(-252.124 -198.095)" fill="#e6f2ff"/>
              <g id="Group_1380" data-name="Group 1380" transform="translate(17.605)">
                <path id="Path_1901" data-name="Path 1901" d="M296.389,211.7h-13.6l1.578-13.6h13.6Z" transform="translate(-282.784 -198.095)" fill="#acdaff"/>
              </g>
              <path id="Path_1902" data-name="Path 1902" d="M327.05,211.7h-13.6l1.578-13.6h13.6Z" transform="translate(-278.236 -198.095)" fill="#e6f2ff"/>
              <path id="Path_1903" data-name="Path 1903" d="M357.711,211.7h-13.6l1.578-13.6h13.6Z" transform="translate(-291.292 -198.095)" fill="#e6f2ff"/>
            </g>
            <g id="Group_1382" data-name="Group 1382" transform="translate(4.037 17.398)">
              <path id="Path_1904" data-name="Path 1904" d="M262.213,242h-13.6l1.578-13.6h13.6Z" transform="translate(-248.608 -228.395)" fill="#e6f2ff"/>
              <path id="Path_1905" data-name="Path 1905" d="M292.874,242h-13.6l1.578-13.6h13.6Z" transform="translate(-261.664 -228.395)" fill="#e6f2ff"/>
              <path id="Path_1906" data-name="Path 1906" d="M323.535,242h-13.6l1.578-13.6h13.6Z" transform="translate(-274.721 -228.395)" fill="#e6f2ff"/>
              <path id="Path_1907" data-name="Path 1907" d="M354.2,242h-13.6l1.578-13.6h13.6Z" transform="translate(-287.777 -228.395)" fill="#e6f2ff"/>
            </g>
            <g id="Group_1384" data-name="Group 1384" transform="translate(2.018 34.795)">
              <path id="Path_1908" data-name="Path 1908" d="M258.7,272.3h-13.6l1.578-13.6h13.6Z" transform="translate(-245.093 -258.695)" fill="#e6f2ff"/>
              <path id="Path_1909" data-name="Path 1909" d="M289.359,272.3h-13.6l1.578-13.6h13.6Z" transform="translate(-258.149 -258.695)" fill="#e6f2ff"/>
              <g id="Group_1383" data-name="Group 1383" transform="translate(35.209)">
                <path id="Path_1910" data-name="Path 1910" d="M320.02,272.3h-13.6l1.578-13.6h13.6Z" transform="translate(-306.415 -258.695)" fill="#e6f2ff"/>
              </g>
              <path id="Path_1911" data-name="Path 1911" d="M350.681,272.3h-13.6l1.578-13.6h13.6Z" transform="translate(-284.261 -258.695)" fill="#e6f2ff"/>
            </g>
            <g id="Group_1385" data-name="Group 1385" transform="translate(0 52.193)">
              <path id="Path_1912" data-name="Path 1912" d="M255.182,302.6h-13.6l1.578-13.6h13.6Z" transform="translate(-241.578 -288.995)" fill="#e6f2ff"/>
              <path id="Path_1913" data-name="Path 1913" d="M285.843,302.6h-13.6l1.578-13.6h13.6Z" transform="translate(-254.634 -288.995)" fill="#e6f2ff"/>
              <path id="Path_1914" data-name="Path 1914" d="M316.5,302.6H302.9l1.578-13.6h13.6Z" transform="translate(-267.69 -288.995)" fill="#e6f2ff"/>
              <path id="Path_1915" data-name="Path 1915" d="M347.165,302.6h-13.6l1.578-13.6h13.6Z" transform="translate(-280.746 -288.995)" fill="#e6f2ff"/>
            </g>
          </g>
        </g>
        <g id="Group_1394" data-name="Group 1394" transform="translate(10.908 112.758)">
          <g id="Group_1393" data-name="Group 1393" transform="translate(2.963)">
            <g id="Group_1388" data-name="Group 1388" transform="translate(0 0.948)">
              <path id="Path_1916" data-name="Path 1916" d="M249.9,346.57a2.235,2.235,0,0,1,2.159-1.935h12.293a3.178,3.178,0,0,0,2.789-1.729,2.643,2.643,0,0,0-.253-3.054l-4.773-5.4a2.47,2.47,0,0,0-1.886-.82H245.278a1.677,1.677,0,0,1-1.676-1.3l-.634-2.72a2.034,2.034,0,0,1,.454-1.758,2.177,2.177,0,0,1,1.672-.814h20.625a1.709,1.709,0,0,1,1.295.558l7.721,8.61c.067-.379.144-.757.221-1.131l-7.261-8.1a2.477,2.477,0,0,0-1.875-.808H245.194a3.152,3.152,0,0,0-2.421,1.179,2.944,2.944,0,0,0-.657,2.545l.634,2.72a2.428,2.428,0,0,0,2.428,1.879h14.952a1.707,1.707,0,0,1,1.3.567l4.772,5.4a1.837,1.837,0,0,1,.175,2.108,2.2,2.2,0,0,1-1.926,1.194H252.159a3.236,3.236,0,0,0-3.127,2.8l-.331,2.851a2.448,2.448,0,0,0,2.477,2.8h13.583a1.7,1.7,0,0,1,1.706,1.968,2.234,2.234,0,0,1-2.159,1.934H237.137l-.1.868h27.171a3.244,3.244,0,0,0,3.131-2.835,2.447,2.447,0,0,0-2.477-2.8H251.279a1.691,1.691,0,0,1-1.71-1.935Z" transform="translate(-237.037 -326.176)" fill="#e6f2ff"/>
            </g>
            <g id="Group_1392" data-name="Group 1392" transform="translate(34.724)">
              <g id="Group_1391" data-name="Group 1391">
                <g id="Group_1389" data-name="Group 1389">
                  <path id="Path_1917" data-name="Path 1917" d="M305.536,328.529c-.257,2.211-4.942,8.082-4.942,8.082s-3.323-5.871-3.067-8.082a4.62,4.62,0,0,1,4.469-4A3.494,3.494,0,0,1,305.536,328.529Z" transform="translate(-297.513 -324.525)" fill="#acdaff"/>
                </g>
                <g id="Group_1390" data-name="Group 1390" transform="translate(0.99 0.779)">
                  <ellipse id="Ellipse_96" data-name="Ellipse 96" cx="2.279" cy="2.029" rx="2.279" ry="2.029" transform="matrix(0.727, -0.686, 0.686, 0.727, 0, 3.128)" fill="#fff"/>
                </g>
              </g>
            </g>
          </g>
          <ellipse id="Ellipse_97" data-name="Ellipse 97" cx="3.561" cy="3.171" rx="3.561" ry="3.171" transform="matrix(0.727, -0.686, 0.686, 0.727, 0, 31.469)" fill="#acdaff"/>
          <ellipse id="Ellipse_98" data-name="Ellipse 98" cx="1.838" cy="1.637" rx="1.838" ry="1.637" transform="matrix(0.727, -0.686, 0.686, 0.727, 2.306, 31.402)" fill="#fff"/>
        </g>
      </g>
    </g>
    <g id="Group_1473" data-name="Group 1473" transform="translate(-26.45 -31.199)">
      <circle id="Ellipse_100" data-name="Ellipse 100" cx="40.5" cy="40.5" r="40.5" transform="translate(199.806 223.46)" fill="#042c42"/>
      <g id="fi-rr-interrogation" transform="translate(199.606 223.261)">
        <path id="Path_1625" data-name="Path 1625" d="M40.728,0A40.728,40.728,0,1,0,81.456,40.728,40.728,40.728,0,0,0,40.728,0Zm0,74.668a33.94,33.94,0,1,1,33.94-33.94A33.94,33.94,0,0,1,40.728,74.668Z" transform="translate(0 0)" fill="#042c42"/>
        <path id="Path_1626" data-name="Path 1626" d="M24.009,5.218A13.576,13.576,0,0,0,8,18.58a3.394,3.394,0,0,0,6.788,0A6.788,6.788,0,0,1,22.835,11.9a6.869,6.869,0,0,1,5.43,5.413,6.788,6.788,0,0,1-3.394,7.212,13.42,13.42,0,0,0-6.69,11.893v2.522a3.394,3.394,0,1,0,6.788,0V36.422a6.727,6.727,0,0,1,3.156-5.946A13.576,13.576,0,0,0,24.009,5.218Z" transform="translate(19.152 11.966)" fill="#fff"/>
        <rect id="Rectangle_224" data-name="Rectangle 224" width="6" height="8" rx="1" transform="translate(37.199 57.199)" fill="#fff"/>
      </g>
    </g>
  </g>
</svg>
