<svg xmlns="http://www.w3.org/2000/svg" width="21.001" height="21" viewBox="0 0 21.001 21">
    <defs>
        <style>
            .cls-1{fill:#042c42}
        </style>
    </defs>
    <g id="edit" transform="translate(0 -.501)">
        <path id="Path_953" d="M16.625 92.817a.875.875 0 0 0-.875.875v7a.876.876 0 0 1-.875.875H2.625a.876.876 0 0 1-.875-.875V88.441a.876.876 0 0 1 .875-.875h7a.875.875 0 0 0 0-1.75h-7A2.628 2.628 0 0 0 0 88.441v12.25a2.628 2.628 0 0 0 2.625 2.625h12.25a2.628 2.628 0 0 0 2.625-2.625v-7a.874.874 0 0 0-.875-.874zm0 0" class="cls-1" transform="translate(0 -81.816)"/>
        <path id="Path_954" d="M182.555 75.185a.443.443 0 0 0-.12.223l-.619 3.094a.437.437 0 0 0 .43.523.416.416 0 0 0 .086-.009l3.093-.619a.436.436 0 0 0 .224-.12l6.923-6.923-3.093-3.093zm0 0" class="cls-1" transform="translate(-174.351 -64.981)"/>
        <path id="Path_955" d="M395.75 1.141a2.189 2.189 0 0 0-3.093 0l-1.211 1.211 3.093 3.093 1.211-1.211a2.187 2.187 0 0 0 0-3.093zm0 0" class="cls-1" transform="translate(-375.389)"/>
    </g>
</svg>
