<svg xmlns="http://www.w3.org/2000/svg" id="_Icon" width="43" height="41" viewBox="0 0 43 41">
    <defs>
        <clipPath id="clip-path">
            <path id="Icon" d="M37.757 36.712H22.662a.8.8 0 0 1-.8-.8v-14.3a.8.8 0 0 1 .8-.8h15.095a.8.8 0 0 1 .8.8v14.3a.8.8 0 0 1-.8.8zM24.744 23.56v10.409h10.93V23.56zm-8.849 13.152H.8a.8.8 0 0 1-.8-.8v-14.3a.8.8 0 0 1 .8-.8h15.095a.8.8 0 0 1 .8.8v14.3a.8.8 0 0 1-.8.8zM2.882 23.56v10.409h10.93V23.56zm34.875-7.66H22.662a.8.8 0 0 1-.8-.8V.8a.8.8 0 0 1 .8-.8h15.095a.8.8 0 0 1 .8.8v14.3a.8.8 0 0 1-.8.8zM24.744 2.744v10.408h10.93V2.744zM15.895 15.9H.8a.8.8 0 0 1-.8-.8V.8A.8.8 0 0 1 .8 0h15.095a.8.8 0 0 1 .8.8v14.3a.8.8 0 0 1-.8.8zM2.882 2.744v10.408h10.93V2.744z" class="cls-1"/>
        </clipPath>
        <style>
            .cls-1{fill:#042c42}
        </style>
    </defs>
    <path id="ic_side-menu_dash_background" fill="none" d="M0 0H43V41H0z"/>
    <g id="Group_1" transform="translate(2.3 2.3)">
        <path id="Icon-2" d="M37.757 36.712H22.662a.8.8 0 0 1-.8-.8v-14.3a.8.8 0 0 1 .8-.8h15.095a.8.8 0 0 1 .8.8v14.3a.8.8 0 0 1-.8.8zM24.744 23.56v10.409h10.93V23.56zm-8.849 13.152H.8a.8.8 0 0 1-.8-.8v-14.3a.8.8 0 0 1 .8-.8h15.095a.8.8 0 0 1 .8.8v14.3a.8.8 0 0 1-.8.8zM2.882 23.56v10.409h10.93V23.56zm34.875-7.66H22.662a.8.8 0 0 1-.8-.8V.8a.8.8 0 0 1 .8-.8h15.095a.8.8 0 0 1 .8.8v14.3a.8.8 0 0 1-.8.8zM24.744 2.744v10.408h10.93V2.744zM15.895 15.9H.8a.8.8 0 0 1-.8-.8V.8A.8.8 0 0 1 .8 0h15.095a.8.8 0 0 1 .8.8v14.3a.8.8 0 0 1-.8.8zM2.882 2.744v10.408h10.93V2.744z" class="cls-1"/>
    </g>
</svg>
