<svg xmlns="http://www.w3.org/2000/svg" width="40" height="38" viewBox="0 0 40 38">
    <g>
        <path fill="none" d="M0 0H40V38H0z"/>
        <path fill="#042c42" d="M10.669 18.624a1.426 1.426 0 0 1 .407-2.027 1.553 1.553 0 0 1 2.106.392 9.466 9.466 0 0 0 7.77 3.98 9.211 9.211 0 0 0 9.368-9.024 9.212 9.212 0 0 0-9.369-9.025 9.465 9.465 0 0 0-7.783 4 1.553 1.553 0 0 1-2.1.4 1.428 1.428 0 0 1-.413-2.027A12.527 12.527 0 0 1 20.951 0a12.193 12.193 0 0 1 12.4 11.945 12.191 12.191 0 0 1-12.4 11.944 12.526 12.526 0 0 1-10.282-5.265zm-5.677-1.266l-4.548-4.38c-.035-.033-.068-.069-.1-.106l-.021-.027c-.023-.029-.045-.058-.066-.088a.25.25 0 0 1-.017-.027c-.021-.032-.042-.064-.06-.1a.118.118 0 0 1-.011-.019c-.02-.036-.038-.072-.054-.11v-.013c-.017-.04-.032-.08-.045-.121v-.014c-.012-.04-.023-.081-.032-.124a.261.261 0 0 1-.014-.029c-.006-.035-.014-.069-.017-.1S0 11.993 0 11.945s0-.1.008-.146l.017-.1a.283.283 0 0 1 .006-.038c.009-.042.02-.082.032-.123v-.016c.014-.04.029-.081.045-.12v-.014q.025-.054.054-.108a.13.13 0 0 1 .011-.02 1.027 1.027 0 0 1 .059-.1l.018-.027c.021-.03.044-.058.066-.087.008-.009.014-.019.023-.027.032-.038.065-.072.1-.107l4.547-4.38a1.559 1.559 0 0 1 2.145 0 1.425 1.425 0 0 1 0 2.066l-1.96 1.888h17.567a1.461 1.461 0 1 1 0 2.92H5.176l1.96 1.888a1.423 1.423 0 0 1 0 2.064 1.558 1.558 0 0 1-2.145 0z" transform="translate(3.335 8.031)"/>
    </g>
</svg>
