<svg xmlns="http://www.w3.org/2000/svg" width="42.567" height="42.567" viewBox="0 0 42.567 42.567">
    <defs>
        <style>
            .cls-1{fill:#042c42}
        </style>
    </defs>
    <g id="question">
        <path id="Path_4" d="M122.064 83.416a3.644 3.644 0 0 0-3.722 3.646h2.494a1.169 1.169 0 0 1 .011-.162 1.152 1.152 0 0 1 1.166-.99A1.169 1.169 0 0 1 123.14 87a1.154 1.154 0 0 1-1.151 1.216h-1.247v3.757h2.494v-1.486a3.658 3.658 0 0 0 1.4-.915 3.617 3.617 0 0 0 1-2.7 3.658 3.658 0 0 0-3.572-3.456z" class="cls-1" transform="translate(-108.503 -76.48)"/>
        <path id="Path_5" d="M148.444 203.869a1.247 1.247 0 1 0 1.247 1.247 1.261 1.261 0 0 0-1.247-1.247z" class="cls-1" transform="translate(-134.958 -186.92)"/>
        <path id="Path_6" d="M29.165 11.519a13.379 13.379 0 0 0-2.456.274A13.4 13.4 0 0 0 0 13.4a13.253 13.253 0 0 0 2.627 7.97v9.676l5.657-5.256a13.271 13.271 0 0 0 5.116 1.015 13.416 13.416 0 0 0 2.461-.227 13.411 13.411 0 0 0 18.42 10.733l5.657 5.256v-9.676a13.252 13.252 0 0 0 2.627-7.97 13.418 13.418 0 0 0-13.4-13.4zM8.593 23.2l-.771-.379-2.7 2.51v-4.816l-.27-.34A10.793 10.793 0 0 1 2.494 13.4 10.908 10.908 0 1 1 13.4 24.311 10.8 10.8 0 0 1 8.593 23.2zm29.124 8.5l-.27.34v4.811l-2.7-2.51-.771.379A10.911 10.911 0 0 1 18.3 25.879a13.432 13.432 0 0 0 8.475-11.553 11.935 11.935 0 0 1 2.392-.313 10.921 10.921 0 0 1 10.906 10.908 10.793 10.793 0 0 1-2.357 6.772z" class="cls-1"/>
        <path id="Path_7" d="M334.673 233.474a1.247 1.247 0 1 0 1.247 1.247 1.261 1.261 0 0 0-1.247-1.247z" class="cls-1" transform="translate(-305.704 -214.063)"/>
        <path id="Path_8" d="M333.437 290.909h2.494v6.119h-2.494z" class="cls-1" transform="translate(-305.715 -266.723)"/>
    </g>
</svg>
