<svg xmlns="http://www.w3.org/2000/svg" width="39" height="37.962" viewBox="0 0 39 37.962">
    <defs>
        <style>
            .cls-1{fill:#042c42}
        </style>
    </defs>
    <g id="question_1_" transform="translate(0 -6.786)">
        <path id="Path_976" d="M38.58 22.187l-5.28-4.355v-4.621a1.147 1.147 0 0 0-1.147-1.147h-5.844L20.23 7.049a1.148 1.148 0 0 0-1.461 0l-6.079 5.015H6.846A1.147 1.147 0 0 0 5.7 13.211v4.622L.42 22.187a1.157 1.157 0 0 0-.42.89V43.6a1.147 1.147 0 0 0 1.147 1.147h36.706A1.146 1.146 0 0 0 39 43.6V23.077a1.183 1.183 0 0 0-.42-.89zm-1.874 18.756L26.89 31.68l9.816-6.473zM3.074 22.973L5.7 20.807v3.9zm4.919-8.615h23.014v11.859L19.5 33.806 7.993 26.217V14.358zM19.5 9.421l3.2 2.643h-6.4zm16.426 13.552L33.3 24.7v-3.9zM2.294 25.207l9.816 6.473-9.816 9.263zm11.783 7.771l4.792 3.16a1.151 1.151 0 0 0 1.263 0l4.792-3.16 10.043 9.477H4.034z" class="cls-1"/>
        <path id="Path_977" d="M212.467 146.607a1.147 1.147 0 0 0 1.147-1.147 1.045 1.045 0 0 1 1.072-1.046 1.057 1.057 0 0 1 1.02 1.02c.016.7-.458.791-1.038 1.478a4.817 4.817 0 0 0-1.155 3.157 1.147 1.147 0 1 0 2.294-.036 2.578 2.578 0 0 1 .968-1.989 3.34 3.34 0 1 0-5.455-2.585 1.147 1.147 0 0 0 1.147 1.148z" class="cls-1" transform="translate(-195.16 -124.984)"/>
        <path id="Path_978" d="M241.147 268.434a1.147 1.147 0 0 0-1.147 1.147v.671a1.147 1.147 0 1 0 2.294 0v-.671a1.147 1.147 0 0 0-1.147-1.147z" class="cls-1" transform="translate(-221.647 -241.639)"/>
    </g>
</svg>
