<svg xmlns="http://www.w3.org/2000/svg" width="42.768" height="42.767" viewBox="0 0 42.768 42.767">
    <path fill="#042c42" d="M41.669 3.837a5.385 5.385 0 0 0-4.335-2.16h-.728V1.26a1.253 1.253 0 0 0-2.506 0V4.6a1.253 1.253 0 1 0 2.506 0v-.416h.728a2.923 2.923 0 0 1 2.812 3.726L36.82 19.549a7.606 7.606 0 0 1-14.627 0L18.868 7.91a2.923 2.923 0 0 1 2.811-3.727h.728V4.6a1.253 1.253 0 1 0 2.506 0V1.26a1.253 1.253 0 0 0-2.506 0v.418h-.728a5.429 5.429 0 0 0-5.22 6.922l3.325 11.639a10.035 10.035 0 0 0 3.634 5.295 10.246 10.246 0 0 0 1.182.766l3.654 8.625v.9a4.438 4.438 0 0 1-8.875 0v-8.588a7.183 7.183 0 1 0-14.367 0V30.2a6.265 6.265 0 1 0 2.506 0v-2.963a4.678 4.678 0 0 1 9.355 0v8.593a6.944 6.944 0 0 0 13.887 0v-.9l3.654-8.63a10.238 10.238 0 0 0 1.182-.768 10.035 10.035 0 0 0 3.634-5.295L42.555 8.6a5.385 5.385 0 0 0-.886-4.761zm-31.646 32.5a3.759 3.759 0 1 1-3.759-3.759 3.763 3.763 0 0 1 3.759 3.764zm19.484-4.877L27.8 27.428a10.205 10.205 0 0 0 3.417 0z" transform="translate(0 -0.007)"/>
</svg>
